<svg xmlns="http://www.w3.org/2000/svg" xmlns:xlink="http://www.w3.org/1999/xlink" viewBox="0 0 960 650"><defs><style>.cls-1{fill:none;}.cls-2{clip-path:url(#clip-path);}.cls-3{fill:#e0e7f3;}.cls-4{fill:#155a8d;}.cls-5{fill:#47a3b6;}</style><clipPath id="clip-path" transform="translate(0 0)"><rect class="cls-1" width="960" height="650"/></clipPath></defs><g id="Layer_2" data-name="Layer 2"><g id="Layer_9" data-name="Layer 9"><g class="cls-2"><path class="cls-3" d="M585.71,0H960V534.38a3.7,3.7,0,0,1-2.16,1.58c-17.36,6.14-34.62,12.49-52.34,17.78-17.19,5.14-34.67,9.33-52.32,12.94-22.14,4.52-44.48,8.1-66.86,11.49-13.53,2.06-27.1,3.92-40.74,5.33-9.44,1-18.92,1.71-28.41,2.35-12.75.87-25.51,1-38.27.72-11.15-.28-22.31-.91-33.43-2q-23.57-2.22-46.83-6.22a334.31,334.31,0,0,1-65.77-18.5c-21.55-8.49-42.52-18-62-29.92-15.33-9.38-29.67-19.9-43.78-30.69q-23.32-17.85-46.79-35.56c-10.55-7.93-20.77-16.19-31.07-24.38-9.17-7.29-18.52-14.39-28.33-21a93.41,93.41,0,0,1-13-10.33,35.76,35.76,0,0,0-4.58-4.63c-6.7-6-13.42-12-20-18.09-18.17-16.75-35.54-34.15-50.42-53.41-11.69-15.14-21.08-31.35-25.23-49.66a84.75,84.75,0,0,1,1.68-44.65c4.36-14,11.62-26.74,20.84-38.64,8.44-10.89,18.07-20.86,27.95-30.67,14-13.92,30.45-25.26,47.4-36Q340.49,110,377.88,91c18.42-9.3,36.77-18.69,55.5-27.5,13.15-6.18,26.18-12.58,39.41-18.65,10.89-5,21.66-10.19,32.69-15q23.64-10.2,48.15-18.54C563,8.17,572.2,4.67,581.42,1.19c1.4-.53,2.92-.63,4.29-1.19" transform="translate(0 0)"/><path class="cls-4" d="M308.16,407.55a26.27,26.27,0,0,1,3.4,3c2.33,2.49,5.38,4.22,8.22,6.16,12.89,8.81,25.21,18.25,37.29,28,11.59,9.33,23.43,18.4,35.39,27.35,9.82,7.34,19.51,14.82,29.24,22.26,16,12.21,32,24.36,49.32,35A301.58,301.58,0,0,0,500.2,545c11.11,5.24,22.38,10.16,33.89,14.63a333.29,333.29,0,0,0,48.36,14.78c10.54,2.34,21.18,4.22,31.89,5.8,8.9,1.31,17.85,2.35,26.82,3.25q13.94,1.39,27.93,2c11.41.53,22.83.66,34.25.3,7.6-.24,15.19-.6,22.77-1.22,11.42-.93,22.83-2.07,34.19-3.49,11.77-1.47,23.48-3.22,35.18-5,16.31-2.52,32.59-5.21,48.78-8.32,18.68-3.59,37.2-7.75,55.4-13,14.73-4.26,29.2-9.14,43.56-14.29q8.4-3,16.78-6.06V650H0V325.87a4.26,4.26,0,0,1,2.76-1.08c12.29-1.21,24.6-2.22,36.92-3.14,13.71-1,27.43-1,41.12-.67a266.15,266.15,0,0,1,48.29,5.55,323.86,323.86,0,0,1,42.77,12.38c11.64,4.19,23.28,8.39,34.71,13q25.08,10.17,48.89,22.61c17.19,9,33.16,19.6,49.14,30.19,1.28.85,2.18,2.08,3.56,2.82" transform="translate(0 0)"/><path class="cls-5" d="M308.16,407.55c-1.82-.44-3.1-1.67-4.56-2.61-8.41-5.46-16.68-11.12-25.19-16.47S261,378.31,252,373.59c-10.13-5.34-20.56-10.17-31.08-14.85-8.3-3.69-16.78-7.07-25.31-10.31-4.23-1.6-8.42-3.29-12.68-4.84-5.35-1.95-10.74-3.8-16.12-5.68-5.68-2-11.42-3.8-17.2-5.51s-11.55-3-17.37-4.38a228.1,228.1,0,0,0-24-4.16c-5.15-.63-10.35-1.06-15.55-1.49-13.61-1.13-27.23-.9-40.85-.65-6,.1-12,.51-18,1-4.33.39-8.67.68-13,1-5.19.42-10.39.81-15.55,1.52-1.79.25-3.62.22-5.41.56V0H585.71a6,6,0,0,1-2.44,1.24c-14,5.24-28,10.23-42.14,15.2-10,3.54-19.88,7.48-29.64,11.61-7.38,3.14-14.79,6.23-22,9.65-14,6.66-28.25,13-42.19,19.81-8.65,4.22-17.38,8.28-26,12.48q-18.31,8.9-36.37,18.23c-7.15,3.7-14.35,7.3-21.49,11-15.58,8.14-30.71,16.93-45.58,26.07-11.66,7.16-23.3,14.36-34.23,22.43-4.65,3.44-9.24,6.95-13.68,10.63-8,6.65-15.08,14.07-22.27,21.41a203.75,203.75,0,0,0-22.87,27.64,111,111,0,0,0-15.93,34A83.84,83.84,0,0,0,206.3,270c1.09,13.19,5.25,25.65,11.6,37.56a184.27,184.27,0,0,0,20.91,30.88c8.27,10,17.33,19.34,26.38,28.71,4.95,5.12,10.19,10,15.42,14.88,8.27,7.73,16.8,15.22,25.16,22.87a14.21,14.21,0,0,1,2.39,2.64" transform="translate(0 0)"/></g></g></g></svg>